#Comment line ignore any data following # character 
#Hierarchical Translation and Rotation (.htr) file 
[Header]	
#Header keywords are followed by a single value 
FileType HTR		#Single word string
DataType HTRS		#Translation followed by rotation and scale data
FileVersion 1		#integer
NumSegments 84		#integer
NumFrames 2		#integer
DataFrameRate 30		#integer, data frame rate in this file
EulerRotationOrder ZYX
CalibrationUnits mm
RotationUnits Degrees
GlobalAxisofGravity Y
BoneLengthAxis Y
ScaleFactor 1.00
[SegmentNames&Hierarchy]
#CHILD	PARENT
MASTER GLOBAL
root MASTER
chest root
L_mid_tent01 root
R_mid_tent01 root
spine01 root
Bip01_Neck chest
L_humerus chest
R_humerus chest
weapon_bone chest
Bip01_Head Bip01_Neck
eye_left_bone Bip01_Head
eye_right_bone Bip01_Head
L_forearm L_humerus
L_front_hand L_forearm
L_weapon_bone L_forearm
L_front_hand01_01 L_front_hand
L_front_hand02_01 L_front_hand
L_front_hand03_01 L_front_hand
L_front_hand01_02 L_front_hand01_01
L_front_hand02_02 L_front_hand02_01
L_front_hand03_02 L_front_hand03_01
R_forearm R_humerus
R_front_hand R_forearm
R_weapon_bone R_forearm
R_front_hand01_01 R_front_hand
R_front_hand02_01 R_front_hand
R_front_hand03_01 R_front_hand
R_front_hand01_02 R_front_hand01_01
R_front_hand02_02 R_front_hand02_01
R_front_hand03_02 R_front_hand03_01
null_rope01_connect L_mid_tent01
Rope1_Seg01 null_rope01_connect
Rope1_Seg02 Rope1_Seg01
Rope1_Seg03 Rope1_Seg02
Rope1_Seg04 Rope1_Seg03
Rope1_Seg05 Rope1_Seg04
Rope1_Seg06 Rope1_Seg05
Rope1_Seg07 Rope1_Seg06
Rope1_Seg09 Rope1_Seg07
L_mid_hand01 Rope1_Seg09
L_mid_hand02 Rope1_Seg09
L_mid_hand03 Rope1_Seg09
null_rope02_connect R_mid_tent01
Rope2_Seg01 null_rope02_connect
Rope2_Seg02 Rope2_Seg01
Rope2_Seg03 Rope2_Seg02
Rope2_Seg04 Rope2_Seg03
Rope2_Seg05 Rope2_Seg04
Rope2_Seg06 Rope2_Seg05
Rope2_Seg07 Rope2_Seg06
Rope2_Seg09 Rope2_Seg07
R_mid_hand01 Rope2_Seg09
R_mid_hand02 Rope2_Seg09
R_mid_hand03 Rope2_Seg09
spine02 spine01
spine03 spine02
pelvis spine03
null_rope03_connect pelvis
null_rope04_connect pelvis
Rope3_Seg01 null_rope03_connect
Rope3_Seg02 Rope3_Seg01
Rope3_Seg03 Rope3_Seg02
Rope3_Seg04 Rope3_Seg03
Rope3_Seg05 Rope3_Seg04
Rope3_Seg06 Rope3_Seg05
Rope3_Seg07 Rope3_Seg06
Rope3_Seg08 Rope3_Seg07
Rope3_Seg09 Rope3_Seg08
R_rear_hand01 Rope3_Seg09
R_rear_hand02 Rope3_Seg09
R_rear_hand03 Rope3_Seg09
Rope4_Seg01 null_rope04_connect
Rope4_Seg02 Rope4_Seg01
Rope4_Seg03 Rope4_Seg02
Rope4_Seg04 Rope4_Seg03
Rope4_Seg05 Rope4_Seg04
Rope4_Seg06 Rope4_Seg05
Rope4_Seg07 Rope4_Seg06
Rope4_Seg08 Rope4_Seg07
Rope4_Seg09 Rope4_Seg08
L_rear_hand01 Rope4_Seg09
L_rear_hand02 Rope4_Seg09
L_rear_hand03 Rope4_Seg09
[BasePosition]
#SegmentName Tx, Ty, Tz, Rx, Ry, Rz, BoneLength
MASTER 0.000000 0.000000 0.000000 -90.000000 0.000000 0.000000 10.000000 
root 0.000000 0.000000 0.000000 0.000000 0.000000 0.000000 10.000000 
chest 0.000000 0.000000 0.000000 0.000000 0.000000 0.000000 10.000000 
L_mid_tent01 0.000000 0.000000 0.000000 0.000000 0.000000 0.000000 10.000000 
R_mid_tent01 0.000000 0.000000 0.000000 0.000000 0.000000 0.000000 10.000000 
spine01 0.000000 0.000000 0.000000 0.000000 0.000000 0.000000 10.000000 
Bip01_Neck 0.000000 0.000000 0.000000 0.000000 0.000000 0.000000 10.000000 
L_humerus 0.000000 0.000000 0.000000 0.000000 0.000000 0.000000 10.000000 
R_humerus 0.000000 0.000000 0.000000 0.000000 0.000000 0.000000 10.000000 
weapon_bone 0.000000 0.000000 0.000000 0.000000 0.000000 0.000000 10.000000 
Bip01_Head 0.000000 0.000000 0.000000 0.000000 0.000000 0.000000 10.000000 
eye_left_bone 0.000000 0.000000 0.000000 0.000000 0.000000 0.000000 10.000000 
eye_right_bone 0.000000 0.000000 0.000000 0.000000 0.000000 0.000000 10.000000 
L_forearm 0.000000 0.000000 0.000000 0.000000 0.000000 0.000000 10.000000 
L_front_hand 0.000000 0.000000 0.000000 0.000000 0.000000 0.000000 10.000000 
L_weapon_bone 0.000000 0.000000 0.000000 0.000000 0.000000 0.000000 10.000000 
L_front_hand01_01 0.000000 0.000000 0.000000 0.000000 0.000000 0.000000 10.000000 
L_front_hand02_01 0.000000 0.000000 0.000000 0.000000 0.000000 0.000000 10.000000 
L_front_hand03_01 0.000000 0.000000 0.000000 0.000000 0.000000 0.000000 10.000000 
L_front_hand01_02 0.000000 0.000000 0.000000 0.000000 0.000000 0.000000 10.000000 
L_front_hand02_02 0.000000 0.000000 0.000000 0.000000 0.000000 0.000000 10.000000 
L_front_hand03_02 0.000000 0.000000 0.000000 0.000000 0.000000 0.000000 10.000000 
R_forearm 0.000000 0.000000 0.000000 0.000000 0.000000 0.000000 10.000000 
R_front_hand 0.000000 0.000000 0.000000 0.000000 0.000000 0.000000 10.000000 
R_weapon_bone 0.000000 0.000000 0.000000 0.000000 0.000000 0.000000 10.000000 
R_front_hand01_01 0.000000 0.000000 0.000000 0.000000 0.000000 0.000000 10.000000 
R_front_hand02_01 0.000000 0.000000 0.000000 0.000000 0.000000 0.000000 10.000000 
R_front_hand03_01 0.000000 0.000000 0.000000 0.000000 0.000000 0.000000 10.000000 
R_front_hand01_02 0.000000 0.000000 0.000000 0.000000 0.000000 0.000000 10.000000 
R_front_hand02_02 0.000000 0.000000 0.000000 0.000000 0.000000 0.000000 10.000000 
R_front_hand03_02 0.000000 0.000000 0.000000 0.000000 0.000000 0.000000 10.000000 
null_rope01_connect 0.000000 0.000000 0.000000 0.000000 0.000000 0.000000 10.000000 
Rope1_Seg01 0.000000 0.000000 0.000000 0.000000 0.000000 0.000000 10.000000 
Rope1_Seg02 0.000000 0.000000 0.000000 0.000000 0.000000 0.000000 10.000000 
Rope1_Seg03 0.000000 0.000000 0.000000 0.000000 0.000000 0.000000 10.000000 
Rope1_Seg04 0.000000 0.000000 0.000000 0.000000 0.000000 0.000000 10.000000 
Rope1_Seg05 0.000000 0.000000 0.000000 0.000000 0.000000 0.000000 10.000000 
Rope1_Seg06 0.000000 0.000000 0.000000 0.000000 0.000000 0.000000 10.000000 
Rope1_Seg07 0.000000 0.000000 0.000000 0.000000 0.000000 0.000000 10.000000 
Rope1_Seg09 0.000000 0.000000 0.000000 0.000000 0.000000 0.000000 10.000000 
L_mid_hand01 0.000000 0.000000 0.000000 0.000000 0.000000 0.000000 10.000000 
L_mid_hand02 0.000000 0.000000 0.000000 0.000000 0.000000 0.000000 10.000000 
L_mid_hand03 0.000000 0.000000 0.000000 0.000000 0.000000 0.000000 10.000000 
null_rope02_connect 0.000000 0.000000 0.000000 0.000000 0.000000 0.000000 10.000000 
Rope2_Seg01 0.000000 0.000000 0.000000 0.000000 0.000000 0.000000 10.000000 
Rope2_Seg02 0.000000 0.000000 0.000000 0.000000 0.000000 0.000000 10.000000 
Rope2_Seg03 0.000000 0.000000 0.000000 0.000000 0.000000 0.000000 10.000000 
Rope2_Seg04 0.000000 0.000000 0.000000 0.000000 0.000000 0.000000 10.000000 
Rope2_Seg05 0.000000 0.000000 0.000000 0.000000 0.000000 0.000000 10.000000 
Rope2_Seg06 0.000000 0.000000 0.000000 0.000000 0.000000 0.000000 10.000000 
Rope2_Seg07 0.000000 0.000000 0.000000 0.000000 0.000000 0.000000 10.000000 
Rope2_Seg09 0.000000 0.000000 0.000000 0.000000 0.000000 0.000000 10.000000 
R_mid_hand01 0.000000 0.000000 0.000000 0.000000 0.000000 0.000000 10.000000 
R_mid_hand02 0.000000 0.000000 0.000000 0.000000 0.000000 0.000000 10.000000 
R_mid_hand03 0.000000 0.000000 0.000000 0.000000 0.000000 0.000000 10.000000 
spine02 0.000000 0.000000 0.000000 0.000000 0.000000 0.000000 10.000000 
spine03 0.000000 0.000000 0.000000 0.000000 0.000000 0.000000 10.000000 
pelvis 0.000000 0.000000 0.000000 0.000000 0.000000 0.000000 10.000000 
null_rope03_connect 0.000000 0.000000 0.000000 0.000000 0.000000 0.000000 10.000000 
null_rope04_connect 0.000000 0.000000 0.000000 0.000000 0.000000 0.000000 10.000000 
Rope3_Seg01 0.000000 0.000000 0.000000 0.000000 0.000000 0.000000 10.000000 
Rope3_Seg02 0.000000 0.000000 0.000000 0.000000 0.000000 0.000000 10.000000 
Rope3_Seg03 0.000000 0.000000 0.000000 0.000000 0.000000 0.000000 10.000000 
Rope3_Seg04 0.000000 0.000000 0.000000 0.000000 0.000000 0.000000 10.000000 
Rope3_Seg05 0.000000 0.000000 0.000000 0.000000 0.000000 0.000000 10.000000 
Rope3_Seg06 0.000000 0.000000 0.000000 0.000000 0.000000 0.000000 10.000000 
Rope3_Seg07 0.000000 0.000000 0.000000 0.000000 0.000000 0.000000 10.000000 
Rope3_Seg08 0.000000 0.000000 0.000000 0.000000 0.000000 0.000000 10.000000 
Rope3_Seg09 0.000000 0.000000 0.000000 0.000000 0.000000 0.000000 10.000000 
R_rear_hand01 0.000000 0.000000 0.000000 0.000000 0.000000 0.000000 10.000000 
R_rear_hand02 0.000000 0.000000 0.000000 0.000000 0.000000 0.000000 10.000000 
R_rear_hand03 0.000000 0.000000 0.000000 0.000000 0.000000 0.000000 10.000000 
Rope4_Seg01 0.000000 0.000000 0.000000 0.000000 0.000000 0.000000 10.000000 
Rope4_Seg02 0.000000 0.000000 0.000000 0.000000 0.000000 0.000000 10.000000 
Rope4_Seg03 0.000000 0.000000 0.000000 0.000000 0.000000 0.000000 10.000000 
Rope4_Seg04 0.000000 0.000000 0.000000 0.000000 0.000000 0.000000 10.000000 
Rope4_Seg05 0.000000 0.000000 0.000000 0.000000 0.000000 0.000000 10.000000 
Rope4_Seg06 0.000000 0.000000 0.000000 0.000000 0.000000 0.000000 10.000000 
Rope4_Seg07 0.000000 0.000000 0.000000 0.000000 0.000000 0.000000 10.000000 
Rope4_Seg08 0.000000 0.000000 0.000000 0.000000 0.000000 0.000000 10.000000 
Rope4_Seg09 0.000000 0.000000 0.000000 0.000000 0.000000 0.000000 10.000000 
L_rear_hand01 0.000000 0.000000 0.000000 0.000000 0.000000 0.000000 10.000000 
L_rear_hand02 0.000000 0.000000 0.000000 0.000000 0.000000 0.000000 10.000000 
L_rear_hand03 0.000000 0.000000 0.000000 0.000000 0.000000 0.000000 10.000000 
#Beginning of Data. Separated by tabs
#Fr	Tx	Ty	Tz	Rx	Ry	Rz	SF
[MASTER]
17 -0.000562 3737.380371 2185.125000 0.001660 0.001660 0.001660 4329.293457
18 -0.000596 3964.010254 2166.893799 0.001660 0.001660 0.001660 4517.610840
[root]
17 70.915642 -16.541441 589.726379 -105.877602 -22.391130 -91.064880 594.205200
18 56.217705 -34.017025 387.312775 -106.659195 -22.460257 -90.867836 392.847015
[chest]
17 -84.512650 -34.090519 0.000000 3.877540 -0.244740 -174.579376 91.129311
18 -84.512650 -34.090519 0.000000 4.126276 -0.319772 -174.200668 91.129311
[L_mid_tent01]
17 27.299110 22.179281 -249.918701 -1.530041 25.704283 67.478951 252.381699
18 27.299114 22.179293 -249.918701 -1.407084 26.797140 67.531113 252.381699
[R_mid_tent01]
17 23.228794 24.509907 226.238495 173.361267 -23.545277 56.878952 228.744751
18 23.228794 24.509907 226.238495 173.338867 -23.420551 56.828838 228.744751
[spine01]
17 -0.361383 -0.195265 0.000000 0.001957 0.001296 22.949430 0.410763
18 -0.361383 -0.195265 0.000000 0.001957 0.001297 22.939341 0.410763
[Bip01_Neck]
17 165.484543 71.581718 0.000119 176.643677 -1.657967 43.431911 180.302734
18 165.484543 71.581718 0.000119 176.643677 -1.657967 43.431911 180.302734
[L_humerus]
17 -13.983130 -135.272980 -120.471481 128.908524 79.424553 -140.260925 181.680161
18 -13.983130 -135.272980 -120.471481 126.887924 79.906151 -142.305710 181.680161
[R_humerus]
17 -13.983309 -135.273102 125.287651 -171.941345 -67.816322 -93.030762 184.909012
18 -13.983309 -135.273102 125.287651 -172.439240 -66.725060 -92.491844 184.909012
[weapon_bone]
17 235.964890 -300.705902 0.000000 0.000000 -89.951546 -128.212341 382.234833
18 235.964890 -300.705902 0.000000 0.000000 -89.951546 -128.212341 382.234833
[Bip01_Head]
17 213.598618 185.285034 17.334137 4.440710 -1.340241 -43.897930 283.293823
18 213.549347 185.422211 15.563812 4.443096 -1.200347 -43.902607 283.243652
[eye_left_bone]
17 -24.626970 125.451866 -64.772606 0.000000 -90.000000 -99.840431 143.318359
18 -24.626970 125.451866 -64.772606 0.000000 -90.000000 -99.840431 143.318359
[eye_right_bone]
17 -24.626970 125.451866 64.327362 0.000000 -89.972023 80.156380 143.117676
18 -24.626970 125.451866 64.327362 0.000000 -89.965736 80.156380 143.117676
[L_forearm]
17 322.776093 0.000000 -0.000119 0.000161 -0.002342 -97.869888 322.776093
18 322.776093 0.000000 -0.000119 0.000168 -0.002341 -98.210991 322.776093
[L_front_hand]
17 241.149185 -0.042021 -3.300071 -175.882645 -1.834323 -27.421965 241.171753
18 241.149185 -0.042021 -3.300071 -175.688171 -1.837945 -27.421883 241.171753
[L_weapon_bone]
17 156.183838 0.000000 0.000000 0.000014 0.000007 0.000001 156.183838
18 156.183838 0.000000 0.000000 0.000014 0.000007 0.000001 156.183838
[L_front_hand01_01]
17 86.095154 20.947098 -0.655860 -0.274251 -0.532978 65.190620 88.609184
18 86.095154 20.947098 -0.655860 -0.281026 -0.528937 65.755089 88.609184
[L_front_hand02_01]
17 86.935165 -11.437475 24.513514 140.993607 -54.388721 -45.452248 91.046425
18 86.935165 -11.437475 24.513514 141.611877 -54.742973 -46.215725 91.046425
[L_front_hand03_01]
17 86.637497 -14.123976 -20.424902 -141.389969 52.619431 -47.524090 90.126129
18 86.637497 -14.123976 -20.424902 -141.973572 52.970387 -48.259937 90.126129
[L_front_hand01_02]
17 71.020905 -0.000179 0.000030 0.000315 -0.002326 -105.400543 71.020905
18 71.020905 -0.000179 0.000030 0.000315 -0.002326 -105.431618 71.020905
[L_front_hand02_02]
17 71.020927 -0.000119 0.000060 0.000315 -0.002326 -105.400543 71.020927
18 71.020927 -0.000119 0.000060 0.000315 -0.002326 -105.431618 71.020927
[L_front_hand03_02]
17 71.020905 -0.000060 0.000060 0.000315 -0.002326 -105.400543 71.020905
18 71.020905 -0.000060 0.000060 0.000315 -0.002326 -105.431618 71.020905
[R_forearm]
17 322.776428 -0.000060 0.000030 0.212538 0.020067 -96.415207 322.776428
18 322.776428 -0.000060 0.000030 0.212476 0.020700 -96.756828 322.776428
[R_front_hand]
17 238.847015 -0.006795 2.210259 13.298713 -10.644038 -26.314409 238.857239
18 238.847015 -0.006795 2.210259 14.431211 -10.644032 -26.313358 238.857239
[R_weapon_bone]
17 155.664093 0.002503 -0.000030 0.003487 0.001180 -90.988930 155.664078
18 155.664093 0.002503 -0.000030 0.003487 0.001180 -90.988930 155.664078
[R_front_hand01_01]
17 87.624611 14.231146 22.918642 -138.456909 -52.798630 42.405624 91.683487
18 87.624611 14.231146 22.918642 -139.165222 -53.267780 43.295258 91.683487
[R_front_hand02_01]
17 89.356956 14.367283 -19.491137 139.300415 51.240429 45.105949 92.579636
18 89.356956 14.367283 -19.491137 139.980438 51.699215 45.970734 92.579636
[R_front_hand03_01]
17 87.286232 -22.307278 -0.143439 0.064051 -0.451784 -62.968155 90.091743
18 87.286232 -22.307278 -0.143439 0.071045 -0.448771 -63.677063 90.091743
[R_front_hand01_02]
17 71.020905 0.000060 0.000119 0.002323 -0.000334 106.381714 71.020905
18 71.020905 0.000060 0.000119 0.002323 -0.000334 106.381714 71.020905
[R_front_hand02_02]
17 71.020844 -0.000030 -0.000119 0.002323 -0.000334 106.381714 71.020836
18 71.020844 -0.000030 -0.000119 0.002323 -0.000334 106.381714 71.020836
[R_front_hand03_02]
17 71.020905 0.000000 0.000030 0.002323 -0.000334 106.381714 71.020905
18 71.020905 0.000000 0.000030 0.002323 -0.000334 106.381714 71.020905
[null_rope01_connect]
17 328.732483 0.000000 -0.000238 -144.197083 -48.317554 -170.343735 328.732483
18 328.732483 0.000000 -0.000238 -144.093109 -46.610809 -170.221542 328.732483
[Rope1_Seg01]
17 0.000038 -0.000256 0.000094 69.755486 -41.918106 -142.228180 0.000276
18 0.000038 -0.000270 0.000091 70.497162 -44.169537 -143.347183 0.000287
[Rope1_Seg02]
17 139.999863 -0.000179 0.000000 4.988853 -6.343048 -9.501743 139.999863
18 139.999863 -0.000179 0.000000 3.793777 -5.951875 -7.986051 139.999863
[Rope1_Seg03]
17 139.999924 0.000060 -0.000060 14.809381 -15.967116 -21.147276 139.999924
18 139.999924 0.000060 -0.000060 10.510457 -14.058008 -17.201015 139.999924
[Rope1_Seg04]
17 139.999924 -0.000060 -0.000119 21.782259 -27.906080 -26.168610 139.999924
18 139.999924 -0.000060 -0.000119 21.429674 -27.754908 -29.006277 139.999924
[Rope1_Seg05]
17 139.999832 0.000119 -0.000060 7.243018 -20.324776 -9.758476 139.999832
18 139.999832 0.000119 -0.000060 7.434938 -21.097511 -11.079930 139.999832
[Rope1_Seg06]
17 139.999954 0.000119 -0.000060 6.616184 -36.895145 -15.042162 139.999954
18 139.999954 0.000119 -0.000060 4.168777 -31.889757 -10.670541 139.999954
[Rope1_Seg07]
17 139.999985 0.000060 0.000000 -2.960881 -26.231964 -8.935568 139.999985
18 139.999985 0.000060 0.000000 -3.402568 -28.733465 -8.888434 139.999985
[Rope1_Seg09]
17 121.602913 0.000119 -0.000089 -89.793175 -1.359789 0.847147 121.602913
18 121.602913 0.000119 -0.000089 -89.793175 -1.359789 0.847147 121.602913
[L_mid_hand01]
17 103.859421 1.038730 8.195221 109.203865 -41.086700 -13.424594 104.187431
18 103.859421 1.038730 8.195221 109.630608 -42.428204 -14.062105 104.187431
[L_mid_hand02]
17 105.572853 -4.139662 -10.864139 -146.975464 31.757511 -38.401608 106.211075
18 105.572853 -4.139662 -10.864139 -147.734787 32.524982 -39.820679 106.211075
[L_mid_hand03]
17 104.641464 17.579376 -3.913581 -14.157615 12.442541 44.406353 106.179977
18 104.641464 17.579376 -3.913581 -13.849796 12.791806 45.822666 106.179977
[null_rope02_connect]
17 328.732849 0.000179 -0.000119 -68.186134 72.703270 57.549965 328.732849
18 328.732849 0.000179 -0.000119 -65.433014 72.544884 60.302612 328.732849
[Rope2_Seg01]
17 0.000053 0.000094 0.000000 -61.629078 19.367771 -11.679585 0.000108
18 0.000054 0.000091 0.000000 -63.728683 22.078669 -3.996091 0.000105
[Rope2_Seg02]
17 139.999741 -0.000060 -0.000119 -28.642448 -6.030315 35.188740 139.999756
18 139.999741 -0.000060 -0.000119 -20.661707 -11.012808 31.935249 139.999756
[Rope2_Seg03]
17 140.000107 0.000030 0.000000 -7.859087 -9.813102 20.463591 140.000107
18 140.000107 0.000030 0.000000 -7.570743 -15.637401 26.485455 140.000107
[Rope2_Seg04]
17 139.999802 0.000000 -0.000060 -0.290593 -8.016647 3.815462 139.999802
18 139.999802 0.000000 -0.000060 -0.181228 -6.965127 5.202184 139.999802
[Rope2_Seg05]
17 139.999985 -0.000060 0.000119 0.681379 -11.593332 -4.487990 139.999985
18 139.999985 -0.000060 0.000119 -0.993533 -2.670202 -7.926785 139.999985
[Rope2_Seg06]
17 139.999893 -0.000030 -0.000119 -0.645389 -10.772676 -3.678818 139.999893
18 139.999893 -0.000030 -0.000119 -0.783191 -2.224864 -6.783935 139.999893
[Rope2_Seg07]
17 139.999893 0.000060 -0.000060 -1.077080 -7.250523 -1.669651 139.999893
18 139.999893 0.000060 -0.000060 -0.446039 -2.009972 -3.250690 139.999893
[Rope2_Seg09]
17 121.338966 0.000089 -0.000060 33.793236 -1.359788 -0.847141 121.338966
18 121.338966 0.000089 -0.000060 33.793236 -1.359788 -0.847141 121.338966
[R_mid_hand01]
17 104.680779 11.144459 -10.335981 -34.514381 34.853710 42.458721 105.778534
18 104.680779 11.144459 -10.335981 -35.659065 33.675755 40.429829 105.778534
[R_mid_hand02]
17 104.070427 2.443552 8.231699 68.611877 -47.139297 16.550779 104.424065
18 104.070427 2.443552 8.231699 69.379761 -45.224785 15.491559 104.424065
[R_mid_hand03]
17 106.028137 -11.221827 -5.996406 -171.008881 13.064262 -52.295349 106.788818
18 106.028137 -11.221827 -5.996406 -170.548004 12.734509 -50.222614 106.788818
[spine02]
17 129.756927 0.001550 0.000119 -0.818747 -3.975318 3.806684 129.756927
18 129.756927 0.001550 0.000119 -0.786482 -3.984260 3.300616 129.756927
[spine03]
17 78.613998 0.081671 -4.899001 1.173839 4.113178 6.069709 78.766541
18 78.613998 0.081664 -4.899002 1.197104 4.106843 6.377752 78.766541
[pelvis]
17 169.435242 0.051022 0.000000 0.008371 -0.191070 -6.985998 169.435257
18 169.435242 0.051022 0.000000 0.007306 -0.191114 -6.346919 169.435257
[null_rope03_connect]
17 -1.257226 -2.466202 137.391083 -154.261612 -73.597244 -119.251289 137.418976
18 -1.257226 -2.466202 137.391083 -154.882645 -72.932953 -118.969902 137.418976
[null_rope04_connect]
17 -1.259640 -2.480268 -137.844437 -154.261612 -73.597244 -119.251289 137.872513
18 -1.259640 -2.480268 -137.844437 -154.882645 -72.932953 -118.969902 137.872513
[Rope3_Seg01]
17 0.000047 -0.000256 0.000000 -149.390182 -34.851974 -48.658924 0.000260
18 0.000045 -0.000270 0.000000 -149.057922 -29.444546 -42.327782 0.000274
[Rope3_Seg02]
17 139.999924 -0.000119 0.000060 11.252132 -16.990772 -4.754490 139.999924
18 139.999924 -0.000119 0.000060 9.865412 -12.634387 -0.443900 139.999924
[Rope3_Seg03]
17 139.999924 -0.000119 0.000119 16.802677 -16.127279 1.345682 139.999924
18 139.999924 -0.000119 0.000119 14.191552 -13.554303 4.537507 139.999924
[Rope3_Seg04]
17 139.999924 0.000119 0.000000 16.000036 -12.484774 3.888914 139.999924
18 139.999924 0.000119 0.000000 19.410431 -17.541771 8.197294 139.999924
[Rope3_Seg05]
17 139.999924 -0.000238 0.000060 48.923943 -37.256561 7.657160 139.999924
18 139.999924 -0.000238 0.000060 33.473030 -42.679077 24.986395 139.999924
[Rope3_Seg06]
17 139.999893 -0.000119 -0.000060 18.509573 -14.356771 26.540308 139.999893
18 139.999893 -0.000119 -0.000060 7.189375 -6.755818 16.967924 139.999893
[Rope3_Seg07]
17 139.999771 0.000060 -0.000119 3.800450 -1.053282 10.353236 139.999771
18 139.999771 0.000060 -0.000119 2.184919 -1.411873 6.562773 139.999771
[Rope3_Seg08]
17 139.999985 -0.000060 0.000000 1.672619 -0.168888 4.897441 139.999985
18 139.999985 -0.000060 0.000000 1.212344 -0.572386 3.280213 139.999985
[Rope3_Seg09]
17 90.185997 -0.000179 -0.000060 89.793228 -1.359877 -0.847183 90.185997
18 90.185997 -0.000179 -0.000060 89.793228 -1.359877 -0.847183 90.185997
[R_rear_hand01]
17 103.366196 -6.073594 -10.757982 -166.071487 20.559361 -44.173790 104.101845
18 103.366196 -6.073594 -10.757982 -165.364609 20.073744 -42.141060 104.101845
[R_rear_hand02]
17 100.509819 12.039542 -7.992327 -29.245224 26.638008 41.706211 101.543350
18 100.509819 12.039542 -7.992327 -30.084066 25.665678 39.802120 101.543350
[R_rear_hand03]
17 101.539970 5.215704 5.435467 81.983536 -44.720295 9.521895 101.819031
18 101.539970 5.215704 5.435467 82.244080 -42.772614 9.150361 101.819031
[Rope4_Seg01]
17 -0.000010 -0.000209 -0.000094 44.968357 -37.457085 -90.019257 0.000229
18 -0.000010 -0.000224 -0.000091 52.025043 -43.165306 -100.460922 0.000242
[Rope4_Seg02]
17 139.999985 0.000060 0.000119 2.441397 -27.040039 3.271826 139.999985
18 139.999985 0.000060 0.000119 4.360979 -24.028105 3.172624 139.999985
[Rope4_Seg03]
17 139.999924 0.000000 -0.000238 16.904196 -35.101032 5.932512 139.999924
18 139.999924 0.000000 -0.000238 17.938971 -30.099535 6.790777 139.999924
[Rope4_Seg04]
17 139.999985 0.000000 0.000119 23.497616 -17.208969 8.644917 139.999985
18 139.999985 0.000000 0.000119 24.991707 -16.472404 10.091038 139.999985
[Rope4_Seg05]
17 139.999802 -0.000060 -0.000119 19.837036 -5.876588 10.828245 139.999802
18 139.999802 -0.000060 -0.000119 21.741726 -6.507382 12.350684 139.999802
[Rope4_Seg06]
17 139.999924 0.000000 0.000060 16.113829 -0.405548 13.155383 139.999924
18 139.999924 0.000000 0.000060 15.597830 -0.636403 12.966678 139.999924
[Rope4_Seg07]
17 139.999802 0.000000 0.000000 8.474529 2.023049 9.436946 139.999802
18 139.999802 0.000000 0.000000 7.339399 1.666834 8.109704 139.999802
[Rope4_Seg08]
17 139.999924 0.000000 0.000119 2.298924 1.817105 5.279149 139.999924
18 139.999924 0.000000 0.000119 1.821305 1.475223 4.458482 139.999924
[Rope4_Seg09]
17 90.185791 0.000060 0.000060 -135.617828 2.228885 0.850567 90.185791
18 90.185791 0.000060 0.000060 -135.617828 2.228885 0.850567 90.185791
[L_rear_hand01]
17 101.696655 -8.392275 -7.654577 -29.807377 -26.000988 139.554398 102.329041
18 101.696655 -8.392275 -7.654577 -28.796085 -27.129269 137.298477 102.329041
[L_rear_hand02]
17 102.726799 -1.568258 5.773216 82.157768 43.437939 170.726135 102.900848
18 102.726799 -1.568258 5.773216 81.840157 45.725391 170.277420 102.900848
[L_rear_hand03]
17 104.552910 9.721220 -10.420293 -165.604721 -20.244781 -137.169205 105.519653
18 104.552910 9.721220 -10.420293 -166.442245 -20.805420 -134.771164 105.519653
